# xmcd CD database file
#
# Track frame offsets:
#	150
#	12134
#	28938
#	42089
#	57824
#	75250
#	85686
#	98652
#	110528
#	127162
#	138735
#	152037
#	166181
#	180297
#
# Disc length: 2658 seconds
#
# Revision: 0
# Processed by: cddbd v1.5.2PL0 Copyright (c) Steve Scherf et al.
# Submitted via: jetAudio 7
#
DISCID=a20a600e
DTITLE=Artísta Desconhecido - Álbum Desconhecido
DYEAR=1900
DGENRE=Gênero Desconhecido
TTITLE0=Faixa 1
TTITLE1=Faixa 2
TTITLE2=Faixa 3
TTITLE3=Faixa 4
TTITLE4=Faixa 5
TTITLE5=Faixa 6
TTITLE6=Faixa 7
TTITLE7=Faixa 8
TTITLE8=Faixa 9
TTITLE9=Faixa 10
TTITLE10=Faixa 11
TTITLE11=Faixa 12
TTITLE12=Faixa 13
TTITLE13=Faixa 14
EXTD=
EXTT0=
EXTT1=
EXTT2=
EXTT3=
EXTT4=
EXTT5=
EXTT6=
EXTT7=
EXTT8=
EXTT9=
EXTT10=
EXTT11=
EXTT12=
EXTT13=
PLAYORDER=
